<svg width="532" height="533" viewBox="0 0 532 533" fill="none" xmlns="http://www.w3.org/2000/svg">
<g opacity="0.3">
<mask id="path-1-inside-1_136_2700" fill="white">
<path d="M497.032 245.538C482.289 245.538 469.745 251.252 465.062 259.211H441.766C441.114 256.109 438.63 253.742 435.535 253.171C432.724 215.621 417.859 181.501 394.767 154.604C396.559 152.033 396.722 148.645 395.011 146.033L411.465 129.544C420.384 131.871 433.295 127.055 443.721 116.565C456.998 103.26 461.233 85.9956 453.21 77.9551C445.187 69.9147 427.959 74.1594 414.682 87.4649C404.256 97.9133 399.41 110.851 401.731 119.79L385.277 136.279C382.671 134.564 379.291 134.728 376.725 136.524C349.886 113.382 315.838 98.4439 278.369 95.6685C277.84 92.5666 275.437 90.077 272.341 89.4239V66.0782C280.283 61.3846 285.985 48.8546 285.985 34.0391C285.985 15.2645 276.781 0 265.459 0C254.137 0 244.932 15.2237 244.932 34.0391C244.932 48.8138 250.634 61.3846 258.576 66.0782V89.4239C255.481 90.077 253.118 92.5666 252.548 95.6685C215.079 98.4847 181.032 113.382 154.192 136.524C151.627 134.728 148.246 134.564 145.64 136.279L129.186 119.79C131.507 110.851 126.702 97.9133 116.235 87.4649C102.958 74.1594 85.7303 69.9147 77.7071 77.9551C69.6839 85.9956 73.9195 103.26 87.1965 116.565C97.6226 127.014 110.533 131.871 119.452 129.544L135.906 146.033C134.195 148.645 134.358 152.033 136.15 154.604C113.058 181.501 98.1521 215.621 95.3826 253.171C92.2874 253.701 89.803 256.109 89.1514 259.211H65.8556C61.172 251.252 48.6688 245.538 33.8849 245.538C15.1912 245.538 0 254.722 0 266.109C0 277.455 15.1912 286.679 33.9663 286.679C48.7095 286.679 61.2534 280.965 65.937 273.006H89.2329C89.8845 276.067 92.3689 278.475 95.4641 279.047C98.2743 316.596 113.14 350.717 136.232 377.613C134.44 380.184 134.277 383.572 135.987 386.184L119.534 402.673C110.615 400.347 97.7041 405.163 87.278 415.652C74.001 428.957 69.7654 446.222 77.7886 454.262C85.8118 462.303 103.039 458.058 116.316 444.753C126.742 434.304 131.589 421.366 129.268 412.428L145.721 395.939C148.328 397.653 151.708 397.49 154.274 395.694C181.113 418.835 215.161 433.773 252.63 436.549C253.159 439.651 255.562 442.14 258.616 442.793V466.139C250.675 470.833 244.973 483.363 244.973 498.178C244.973 516.953 254.177 532.217 265.499 532.217C276.821 532.217 286.026 516.994 286.026 498.178C286.026 483.404 280.324 470.833 272.382 466.139V442.793C275.477 442.14 277.84 439.651 278.41 436.549C315.879 433.733 349.926 418.835 376.766 395.694C379.331 397.49 382.712 397.653 385.318 395.939L401.772 412.428C399.45 421.366 404.256 434.304 414.723 444.753C428 458.058 445.228 462.303 453.251 454.262C461.274 446.222 457.038 428.957 443.761 415.652C433.335 405.204 420.425 400.347 411.506 402.673L395.052 386.184C396.762 383.572 396.6 380.184 394.808 377.613C417.9 350.717 432.806 316.596 435.575 279.047C438.671 278.516 441.155 276.108 441.807 273.006H465.102C469.786 280.965 482.289 286.679 497.073 286.679C515.808 286.679 531.039 277.455 531.039 266.109C530.958 254.722 515.767 245.538 497.032 245.538ZM167.592 373.94L181.765 359.736C184.534 356.961 188.322 355.369 192.272 355.369C200.458 355.369 207.097 348.717 207.097 340.513C207.097 336.554 208.644 332.799 211.455 329.983L232.673 308.719L233.936 309.984C234.954 311.004 236.624 311.004 237.683 309.984L249.127 298.515C250.756 299.331 252.467 300.066 254.218 300.638V316.841C254.218 318.31 255.399 319.494 256.865 319.494H258.657V349.574C258.657 353.533 257.11 357.288 254.299 360.104C248.516 365.899 248.516 375.328 254.299 381.123C257.069 383.899 258.657 387.694 258.657 391.653V411.693C223.632 410.06 191.865 396.061 167.592 373.94ZM120.185 272.965H140.182C144.133 272.965 147.88 274.516 150.69 277.333C156.473 283.128 165.881 283.128 171.664 277.333C174.434 274.557 178.221 272.965 182.172 272.965H212.188V274.761C212.188 276.231 213.369 277.414 214.835 277.414H231.004C231.574 279.169 232.307 280.883 233.121 282.516L221.677 293.985C220.659 295.005 220.659 296.679 221.677 297.74L222.94 299.005L201.721 320.269C198.951 323.044 195.164 324.636 191.213 324.636C183.027 324.636 176.389 331.289 176.389 339.493C176.389 343.452 174.841 347.207 172.031 350.023L157.858 364.226C135.784 339.901 121.814 308.066 120.185 272.965ZM363.366 158.237L349.193 172.44C346.424 175.215 342.636 176.807 338.686 176.807C330.5 176.807 323.861 183.46 323.861 191.664C323.861 195.623 322.314 199.377 319.503 202.194L298.285 223.458L297.022 222.193C296.004 221.172 294.334 221.172 293.275 222.193L281.831 233.661C280.202 232.845 278.491 232.11 276.74 231.539V215.336C276.74 213.866 275.559 212.683 274.093 212.683H272.301V182.603C272.301 178.644 273.848 174.889 276.659 172.073C282.442 166.277 282.442 156.849 276.659 151.053C273.889 148.278 272.301 144.482 272.301 140.523V120.484C307.367 122.116 339.134 136.115 363.366 158.237ZM410.773 259.211H390.776C386.825 259.211 383.078 257.66 380.268 254.844C374.485 249.048 365.077 249.048 359.294 254.844C356.524 257.619 352.737 259.211 348.786 259.211H318.77V257.415C318.77 255.946 317.589 254.762 316.123 254.762H299.954C299.384 253.007 298.651 251.293 297.837 249.661L309.281 238.192C310.299 237.171 310.299 235.498 309.281 234.437L308.018 233.172L329.237 211.907C332.007 209.132 335.794 207.54 339.745 207.54C347.931 207.54 354.569 200.888 354.569 192.684C354.569 188.725 356.117 184.97 358.927 182.154L373.1 167.95C395.174 192.317 409.143 224.152 410.773 259.211ZM258.616 140.523C258.616 144.482 257.069 148.237 254.259 151.053C248.475 156.849 248.475 166.277 254.259 172.073C257.028 174.848 258.616 178.644 258.616 182.603V212.683H256.824C255.358 212.683 254.177 213.866 254.177 215.336V231.539C252.426 232.11 250.715 232.845 249.086 233.661L237.642 222.193C236.624 221.172 234.954 221.172 233.895 222.193L232.633 223.458L211.414 202.194C208.644 199.418 207.056 195.623 207.056 191.664C207.056 183.46 200.418 176.807 192.231 176.807C188.281 176.807 184.534 175.256 181.724 172.44L167.551 158.237C191.824 136.115 223.591 122.075 258.576 120.443V140.523H258.616ZM157.858 167.991L172.031 182.195C174.8 184.97 176.389 188.766 176.389 192.725C176.389 200.928 183.027 207.581 191.213 207.581C195.164 207.581 198.911 209.132 201.721 211.948L222.94 233.212L221.677 234.478C220.659 235.498 220.659 237.171 221.677 238.233L233.121 249.701C232.307 251.334 231.574 253.048 231.004 254.803H214.835C213.369 254.803 212.188 255.987 212.188 257.456V259.252H182.172C178.221 259.252 174.475 257.701 171.664 254.885C165.881 249.089 156.473 249.089 150.69 254.885C147.92 257.66 144.133 259.252 140.182 259.252H120.185C121.814 224.152 135.784 192.317 157.858 167.991ZM272.341 391.653C272.341 387.694 273.889 383.939 276.699 381.123C282.483 375.328 282.483 365.899 276.699 360.104C273.93 357.328 272.341 353.533 272.341 349.574V319.494H274.133C275.6 319.494 276.781 318.31 276.781 316.841V300.638C278.532 300.066 280.243 299.331 281.872 298.515L293.316 309.984C294.334 311.004 296.004 311.004 297.063 309.984L298.325 308.719L319.544 329.983C322.314 332.758 323.902 336.554 323.902 340.513C323.902 348.717 330.54 355.369 338.727 355.369C342.677 355.369 346.424 356.92 349.234 359.736L363.407 373.94C339.134 396.061 307.367 410.101 272.382 411.693V391.653H272.341ZM373.1 364.185L358.927 349.982C356.158 347.207 354.569 343.411 354.569 339.452C354.569 331.248 347.931 324.595 339.745 324.595C335.794 324.595 332.047 323.044 329.237 320.228L308.018 298.964L309.281 297.699C310.299 296.679 310.299 295.005 309.281 293.944L297.837 282.475C298.651 280.843 299.384 279.128 299.954 277.373H316.123C317.589 277.373 318.77 276.19 318.77 274.72V272.925H348.786C352.737 272.925 356.483 274.476 359.294 277.292C365.077 283.087 374.485 283.087 380.268 277.292C383.038 274.516 386.825 272.925 390.776 272.925H410.773C409.143 308.066 395.174 339.901 373.1 364.185Z"/>
</mask>
<path d="M497.032 245.538C482.289 245.538 469.745 251.252 465.062 259.211H441.766C441.114 256.109 438.63 253.742 435.535 253.171C432.724 215.621 417.859 181.501 394.767 154.604C396.559 152.033 396.722 148.645 395.011 146.033L411.465 129.544C420.384 131.871 433.295 127.055 443.721 116.565C456.998 103.26 461.233 85.9956 453.21 77.9551C445.187 69.9147 427.959 74.1594 414.682 87.4649C404.256 97.9133 399.41 110.851 401.731 119.79L385.277 136.279C382.671 134.564 379.291 134.728 376.725 136.524C349.886 113.382 315.838 98.4439 278.369 95.6685C277.84 92.5666 275.437 90.077 272.341 89.4239V66.0782C280.283 61.3846 285.985 48.8546 285.985 34.0391C285.985 15.2645 276.781 0 265.459 0C254.137 0 244.932 15.2237 244.932 34.0391C244.932 48.8138 250.634 61.3846 258.576 66.0782V89.4239C255.481 90.077 253.118 92.5666 252.548 95.6685C215.079 98.4847 181.032 113.382 154.192 136.524C151.627 134.728 148.246 134.564 145.64 136.279L129.186 119.79C131.507 110.851 126.702 97.9133 116.235 87.4649C102.958 74.1594 85.7303 69.9147 77.7071 77.9551C69.6839 85.9956 73.9195 103.26 87.1965 116.565C97.6226 127.014 110.533 131.871 119.452 129.544L135.906 146.033C134.195 148.645 134.358 152.033 136.15 154.604C113.058 181.501 98.1521 215.621 95.3826 253.171C92.2874 253.701 89.803 256.109 89.1514 259.211H65.8556C61.172 251.252 48.6688 245.538 33.8849 245.538C15.1912 245.538 0 254.722 0 266.109C0 277.455 15.1912 286.679 33.9663 286.679C48.7095 286.679 61.2534 280.965 65.937 273.006H89.2329C89.8845 276.067 92.3689 278.475 95.4641 279.047C98.2743 316.596 113.14 350.717 136.232 377.613C134.44 380.184 134.277 383.572 135.987 386.184L119.534 402.673C110.615 400.347 97.7041 405.163 87.278 415.652C74.001 428.957 69.7654 446.222 77.7886 454.262C85.8118 462.303 103.039 458.058 116.316 444.753C126.742 434.304 131.589 421.366 129.268 412.428L145.721 395.939C148.328 397.653 151.708 397.49 154.274 395.694C181.113 418.835 215.161 433.773 252.63 436.549C253.159 439.651 255.562 442.14 258.616 442.793V466.139C250.675 470.833 244.973 483.363 244.973 498.178C244.973 516.953 254.177 532.217 265.499 532.217C276.821 532.217 286.026 516.994 286.026 498.178C286.026 483.404 280.324 470.833 272.382 466.139V442.793C275.477 442.14 277.84 439.651 278.41 436.549C315.879 433.733 349.926 418.835 376.766 395.694C379.331 397.49 382.712 397.653 385.318 395.939L401.772 412.428C399.45 421.366 404.256 434.304 414.723 444.753C428 458.058 445.228 462.303 453.251 454.262C461.274 446.222 457.038 428.957 443.761 415.652C433.335 405.204 420.425 400.347 411.506 402.673L395.052 386.184C396.762 383.572 396.6 380.184 394.808 377.613C417.9 350.717 432.806 316.596 435.575 279.047C438.671 278.516 441.155 276.108 441.807 273.006H465.102C469.786 280.965 482.289 286.679 497.073 286.679C515.808 286.679 531.039 277.455 531.039 266.109C530.958 254.722 515.767 245.538 497.032 245.538ZM167.592 373.94L181.765 359.736C184.534 356.961 188.322 355.369 192.272 355.369C200.458 355.369 207.097 348.717 207.097 340.513C207.097 336.554 208.644 332.799 211.455 329.983L232.673 308.719L233.936 309.984C234.954 311.004 236.624 311.004 237.683 309.984L249.127 298.515C250.756 299.331 252.467 300.066 254.218 300.638V316.841C254.218 318.31 255.399 319.494 256.865 319.494H258.657V349.574C258.657 353.533 257.11 357.288 254.299 360.104C248.516 365.899 248.516 375.328 254.299 381.123C257.069 383.899 258.657 387.694 258.657 391.653V411.693C223.632 410.06 191.865 396.061 167.592 373.94ZM120.185 272.965H140.182C144.133 272.965 147.88 274.516 150.69 277.333C156.473 283.128 165.881 283.128 171.664 277.333C174.434 274.557 178.221 272.965 182.172 272.965H212.188V274.761C212.188 276.231 213.369 277.414 214.835 277.414H231.004C231.574 279.169 232.307 280.883 233.121 282.516L221.677 293.985C220.659 295.005 220.659 296.679 221.677 297.74L222.94 299.005L201.721 320.269C198.951 323.044 195.164 324.636 191.213 324.636C183.027 324.636 176.389 331.289 176.389 339.493C176.389 343.452 174.841 347.207 172.031 350.023L157.858 364.226C135.784 339.901 121.814 308.066 120.185 272.965ZM363.366 158.237L349.193 172.44C346.424 175.215 342.636 176.807 338.686 176.807C330.5 176.807 323.861 183.46 323.861 191.664C323.861 195.623 322.314 199.377 319.503 202.194L298.285 223.458L297.022 222.193C296.004 221.172 294.334 221.172 293.275 222.193L281.831 233.661C280.202 232.845 278.491 232.11 276.74 231.539V215.336C276.74 213.866 275.559 212.683 274.093 212.683H272.301V182.603C272.301 178.644 273.848 174.889 276.659 172.073C282.442 166.277 282.442 156.849 276.659 151.053C273.889 148.278 272.301 144.482 272.301 140.523V120.484C307.367 122.116 339.134 136.115 363.366 158.237ZM410.773 259.211H390.776C386.825 259.211 383.078 257.66 380.268 254.844C374.485 249.048 365.077 249.048 359.294 254.844C356.524 257.619 352.737 259.211 348.786 259.211H318.77V257.415C318.77 255.946 317.589 254.762 316.123 254.762H299.954C299.384 253.007 298.651 251.293 297.837 249.661L309.281 238.192C310.299 237.171 310.299 235.498 309.281 234.437L308.018 233.172L329.237 211.907C332.007 209.132 335.794 207.54 339.745 207.54C347.931 207.54 354.569 200.888 354.569 192.684C354.569 188.725 356.117 184.97 358.927 182.154L373.1 167.95C395.174 192.317 409.143 224.152 410.773 259.211ZM258.616 140.523C258.616 144.482 257.069 148.237 254.259 151.053C248.475 156.849 248.475 166.277 254.259 172.073C257.028 174.848 258.616 178.644 258.616 182.603V212.683H256.824C255.358 212.683 254.177 213.866 254.177 215.336V231.539C252.426 232.11 250.715 232.845 249.086 233.661L237.642 222.193C236.624 221.172 234.954 221.172 233.895 222.193L232.633 223.458L211.414 202.194C208.644 199.418 207.056 195.623 207.056 191.664C207.056 183.46 200.418 176.807 192.231 176.807C188.281 176.807 184.534 175.256 181.724 172.44L167.551 158.237C191.824 136.115 223.591 122.075 258.576 120.443V140.523H258.616ZM157.858 167.991L172.031 182.195C174.8 184.97 176.389 188.766 176.389 192.725C176.389 200.928 183.027 207.581 191.213 207.581C195.164 207.581 198.911 209.132 201.721 211.948L222.94 233.212L221.677 234.478C220.659 235.498 220.659 237.171 221.677 238.233L233.121 249.701C232.307 251.334 231.574 253.048 231.004 254.803H214.835C213.369 254.803 212.188 255.987 212.188 257.456V259.252H182.172C178.221 259.252 174.475 257.701 171.664 254.885C165.881 249.089 156.473 249.089 150.69 254.885C147.92 257.66 144.133 259.252 140.182 259.252H120.185C121.814 224.152 135.784 192.317 157.858 167.991ZM272.341 391.653C272.341 387.694 273.889 383.939 276.699 381.123C282.483 375.328 282.483 365.899 276.699 360.104C273.93 357.328 272.341 353.533 272.341 349.574V319.494H274.133C275.6 319.494 276.781 318.31 276.781 316.841V300.638C278.532 300.066 280.243 299.331 281.872 298.515L293.316 309.984C294.334 311.004 296.004 311.004 297.063 309.984L298.325 308.719L319.544 329.983C322.314 332.758 323.902 336.554 323.902 340.513C323.902 348.717 330.54 355.369 338.727 355.369C342.677 355.369 346.424 356.92 349.234 359.736L363.407 373.94C339.134 396.061 307.367 410.101 272.382 411.693V391.653H272.341ZM373.1 364.185L358.927 349.982C356.158 347.207 354.569 343.411 354.569 339.452C354.569 331.248 347.931 324.595 339.745 324.595C335.794 324.595 332.047 323.044 329.237 320.228L308.018 298.964L309.281 297.699C310.299 296.679 310.299 295.005 309.281 293.944L297.837 282.475C298.651 280.843 299.384 279.128 299.954 277.373H316.123C317.589 277.373 318.77 276.19 318.77 274.72V272.925H348.786C352.737 272.925 356.483 274.476 359.294 277.292C365.077 283.087 374.485 283.087 380.268 277.292C383.038 274.516 386.825 272.925 390.776 272.925H410.773C409.143 308.066 395.174 339.901 373.1 364.185Z" stroke="#4FAEAB" stroke-width="2" mask="url(#path-1-inside-1_136_2700)"/>
</g>
</svg>
